<?xml version="1.0" encoding="utf-8"?>
<!-- Generator: Adobe Illustrator 16.0.0, SVG Export Plug-In . SVG Version: 6.00 Build 0)  -->
<!DOCTYPE svg PUBLIC "-//W3C//DTD SVG 1.1//EN" "http://www.w3.org/Graphics/SVG/1.1/DTD/svg11.dtd">
<svg version="1.1" id="Layer_1" xmlns="http://www.w3.org/2000/svg" xmlns:xlink="http://www.w3.org/1999/xlink" x="0px" y="0px"
	 width="25px" height="25px" viewBox="0 0 25 25" enable-background="new 0 0 25 25" xml:space="preserve">
<title>noun_555068_cc</title>
<desc>Created using Figma</desc>
<g id="Canvas" transform="translate(-4909 -2651)">
	<g>
		<g id="noun_555068_cc_8_">
			<g id="Vector_8_">
				<g transform="translate(4909 2651)">
					<path id="path0_fill_8_" fill="#1E3C69" d="M4921.5,2676c-6.904,0-12.5-5.596-12.5-12.5c0-6.904,5.596-12.5,12.5-12.5
						c6.904,0,12.5,5.596,12.5,12.5C4934,2670.404,4928.404,2676,4921.5,2676z M4924.104,2665.063
						c-0.679,0.547-1.211,1.248-1.55,2.05c-2.101-0.925-3.741-2.565-4.676-4.595c0.813-0.41,1.513-0.942,2.051-1.611
						c-0.137-1.515-0.919-2.813-2.061-3.646c-1.524,0.551-2.585,1.966-2.619,3.632c0.115,4.751,3.858,8.59,8.555,8.856
						c1.771-0.021,3.267-1.074,3.934-2.575c-0.833-1.184-2.13-1.965-3.614-2.109L4924.104,2665.063z"/>
				</g>
			</g>
		</g>
	</g>
</g>
</svg>
