<?xml version="1.0" encoding="utf-8"?>
<!-- Generator: Adobe Illustrator 16.0.0, SVG Export Plug-In . SVG Version: 6.00 Build 0)  -->
<!DOCTYPE svg PUBLIC "-//W3C//DTD SVG 1.1//EN" "http://www.w3.org/Graphics/SVG/1.1/DTD/svg11.dtd">
<svg version="1.1" id="Layer_1" xmlns="http://www.w3.org/2000/svg" xmlns:xlink="http://www.w3.org/1999/xlink" x="0px" y="0px"
	 width="25px" height="25px" viewBox="0 0 25 25" enable-background="new 0 0 25 25" xml:space="preserve">
<title>noun_376853_cc</title>
<desc>Created using Figma</desc>
<g id="Canvas" transform="translate(-4909 -2705)">
	<g>
		<g id="noun_376853_cc_8_">
			<g id="Group_8_">
				<g id="Vector_8_">
					<g transform="translate(4909 2705)">
						<path id="path0_fill_8_" fill="#1E3C69" d="M4921.5,2705c-3.315,0-6.495,1.317-8.839,3.661s-3.661,5.523-3.661,8.839
							c0,3.314,1.317,6.494,3.661,8.839s5.523,3.661,8.839,3.661s6.494-1.316,8.839-3.661s3.661-5.524,3.661-8.839
							c0-3.315-1.316-6.495-3.661-8.839S4924.815,2705,4921.5,2705L4921.5,2705z M4921.5,2709.5c4.412,0,8,3.588,8,8s-3.588,8-8,8
							s-8-3.588-8-8S4917.088,2709.5,4921.5,2709.5z M4921.5,2710.5c-0.231,0-0.485,0.117-0.773,0.43s-0.583,0.811-0.832,1.449
							c-0.233,0.597-0.423,1.321-0.564,2.121h4.34c-0.142-0.8-0.332-1.524-0.564-2.121c-0.249-0.638-0.543-1.136-0.832-1.449
							C4921.985,2710.617,4921.731,2710.5,4921.5,2710.5z M4919.6,2710.766c-1.958,0.55-3.563,1.927-4.42,3.734h3.127
							c0.152-0.926,0.375-1.766,0.656-2.484C4919.148,2711.542,4919.36,2711.125,4919.6,2710.766z M4923.4,2710.766
							c0.239,0.36,0.451,0.776,0.637,1.25c0.281,0.719,0.504,1.559,0.656,2.484h3.127
							C4926.963,2712.693,4925.359,2711.316,4923.4,2710.766z M4914.793,2715.5c-0.188,0.634-0.293,1.304-0.293,2
							c0,0.696,0.104,1.365,0.293,2h3.395c-0.067-0.643-0.115-1.305-0.115-2c0-0.696,0.048-1.357,0.115-2H4914.793z
							 M4919.195,2715.5c-0.071,0.638-0.123,1.301-0.123,2s0.051,1.361,0.123,2h4.609c0.072-0.639,0.123-1.301,0.123-2
							s-0.052-1.362-0.123-2H4919.195z M4924.813,2715.5c0.067,0.643,0.115,1.304,0.115,2c0,0.695-0.048,1.357-0.115,2h3.395
							c0.188-0.635,0.293-1.304,0.293-2c0-0.696-0.105-1.366-0.293-2H4924.813z M4915.182,2720.5
							c0.857,1.805,2.459,3.182,4.416,3.732c-0.239-0.359-0.45-0.773-0.635-1.246c-0.281-0.719-0.504-1.561-0.656-2.486H4915.182z
							 M4919.332,2720.5c0.142,0.8,0.33,1.527,0.563,2.123c0.249,0.639,0.543,1.137,0.832,1.449s0.542,0.428,0.773,0.428
							s0.485-0.115,0.773-0.428c0.289-0.313,0.583-0.811,0.832-1.449c0.232-0.596,0.421-1.323,0.563-2.123H4919.332z
							 M4924.693,2720.5c-0.152,0.926-0.375,1.768-0.656,2.486c-0.185,0.473-0.396,0.887-0.635,1.246
							c1.957-0.551,3.559-1.928,4.416-3.732H4924.693z"/>
					</g>
				</g>
			</g>
		</g>
	</g>
</g>
</svg>
