<?xml version="1.0" encoding="utf-8"?>
<!-- Generator: Adobe Illustrator 16.0.0, SVG Export Plug-In . SVG Version: 6.00 Build 0)  -->
<!DOCTYPE svg PUBLIC "-//W3C//DTD SVG 1.1//EN" "http://www.w3.org/Graphics/SVG/1.1/DTD/svg11.dtd">
<svg version="1.1" id="Layer_1" xmlns="http://www.w3.org/2000/svg" xmlns:xlink="http://www.w3.org/1999/xlink" x="0px" y="0px"
	 width="25px" height="25px" viewBox="0 0 25 25" enable-background="new 0 0 25 25" xml:space="preserve">
<title>noun_376938_cc</title>
<desc>Created using Figma</desc>
<g id="Canvas" transform="translate(-4909 -2758)">
	<g>
		<g id="noun_376938_cc_8_">
			<g id="Group_24_">
				<g id="Group_25_">
					<g id="Group_26_">
						<g id="Vector_8_">
							<g transform="translate(4909 2758)">
								<path id="path0_fill_8_" fill="#1E3C69" d="M4921.5,2758c-3.315,0-6.495,1.317-8.839,3.661s-3.661,5.523-3.661,8.839
									c0,3.314,1.317,6.494,3.661,8.839s5.523,3.661,8.839,3.661s6.494-1.316,8.839-3.661s3.661-5.524,3.661-8.839
									c0-3.315-1.316-6.495-3.661-8.839S4924.815,2758,4921.5,2758L4921.5,2758z M4921.5,2764c2.756,0,5,2.245,5,5
									c0,3.835-3.646,7.354-4.646,8.354l-0.354,0.354l-0.354-0.354c-1.001-1.001-4.646-4.529-4.646-8.354
									C4916.5,2766.245,4918.745,2764,4921.5,2764z M4921.5,2765c-2.215,0-4,1.785-4,4c0,2.938,2.792,5.99,4,7.229
									c1.209-1.238,4-4.279,4-7.229C4925.5,2766.785,4923.715,2765,4921.5,2765z M4921.5,2767c1.099,0,2,0.901,2,2s-0.901,2-2,2
									s-2-0.901-2-2S4920.401,2767,4921.5,2767z M4921.5,2768c-0.558,0-1,0.442-1,1s0.442,1,1,1c0.559,0,1-0.442,1-1
									S4922.059,2768,4921.5,2768z"/>
							</g>
						</g>
					</g>
				</g>
			</g>
		</g>
	</g>
</g>
</svg>
