<?xml version="1.0" encoding="utf-8"?>
<!-- Generator: Adobe Illustrator 16.0.0, SVG Export Plug-In . SVG Version: 6.00 Build 0)  -->
<!DOCTYPE svg PUBLIC "-//W3C//DTD SVG 1.1//EN" "http://www.w3.org/Graphics/SVG/1.1/DTD/svg11.dtd">
<svg version="1.1" id="Layer_1" xmlns="http://www.w3.org/2000/svg" xmlns:xlink="http://www.w3.org/1999/xlink" x="0px" y="0px"
	 width="25px" height="25px" viewBox="0 0 25 25" enable-background="new 0 0 25 25" xml:space="preserve">
<title>noun_99709_cc</title>
<desc>Created using Figma</desc>
<g>
	
		<linearGradient id="SVGID_1_" gradientUnits="userSpaceOnUse" x1="181.4834" y1="-457.1855" x2="187.68" y2="-470.4435" gradientTransform="matrix(1 0 0 -1 -173.0996 -453.4902)">
		<stop  offset="0" style="stop-color:#0077B5"/>
		<stop  offset="1" style="stop-color:#0066B2"/>
	</linearGradient>
	<path fill="url(#SVGID_1_)" d="M20.368,24.33c-5.24,0.56-10.495,0.56-15.736,0c-2.09-0.223-3.74-1.873-3.963-3.962
		c-0.559-5.24-0.559-10.496,0-15.736c0.223-2.09,1.873-3.74,3.963-3.963c5.241-0.559,10.496-0.559,15.735,0
		c2.09,0.223,3.739,1.873,3.963,3.963c0.56,5.24,0.56,10.496,0,15.736C24.106,22.457,22.457,24.107,20.368,24.33z"/>
	
		<linearGradient id="SVGID_2_" gradientUnits="userSpaceOnUse" x1="190.7813" y1="-468.7725" x2="155.1864" y2="-449.6781" gradientTransform="matrix(1 0 0 -1 -173.0996 -453.4902)">
		<stop  offset="0" style="stop-color:#0066B2;stop-opacity:0"/>
		<stop  offset="1" style="stop-color:#07485E"/>
	</linearGradient>
	<path fill="url(#SVGID_2_)" d="M22.997,5.519c-0.196-1.854-1.662-3.318-3.516-3.517c-4.65-0.496-9.313-0.496-13.963,0
		C3.665,2.2,2.2,3.665,2.002,5.519c-0.496,4.649-0.496,9.313,0,13.964c0.198,1.854,1.663,3.318,3.517,3.517
		c4.649,0.494,9.313,0.494,13.963,0c1.854-0.198,3.319-1.663,3.516-3.517C23.494,14.832,23.494,10.167,22.997,5.519z"/>
	
		<linearGradient id="SVGID_3_" gradientUnits="userSpaceOnUse" x1="185.5996" y1="-473.6382" x2="185.5996" y2="-478.7591" gradientTransform="matrix(1 0 0 -1 -173.0996 -453.4902)">
		<stop  offset="0" style="stop-color:#0066B2;stop-opacity:0"/>
		<stop  offset="1" style="stop-color:#07485E"/>
	</linearGradient>
	<path fill="url(#SVGID_3_)" d="M0.617,19.859c0.017,0.17,0.035,0.339,0.052,0.509c0.223,2.089,1.873,3.739,3.963,3.962
		c5.241,0.56,10.496,0.56,15.736,0c2.089-0.223,3.738-1.873,3.962-3.962c0.019-0.17,0.036-0.339,0.053-0.509H0.617z"/>
	
		<linearGradient id="SVGID_4_" gradientUnits="userSpaceOnUse" x1="186.3359" y1="-466.8403" x2="177.1757" y2="-457.6801" gradientTransform="matrix(1 0 0 -1 -173.0996 -453.4902)">
		<stop  offset="0" style="stop-color:#0066B2;stop-opacity:0"/>
		<stop  offset="1" style="stop-color:#07485E"/>
	</linearGradient>
	<path fill="url(#SVGID_4_)" d="M24.065,21.476L8.256,5.665c-0.354-0.46-0.909-0.758-1.534-0.758c-1.066,0-1.931,0.865-1.931,1.931
		c0,0.625,0.297,1.181,0.758,1.533l15.755,15.756C22.578,23.703,23.592,22.726,24.065,21.476z"/>
	
		<linearGradient id="SVGID_5_" gradientUnits="userSpaceOnUse" x1="191.7129" y1="-475.3516" x2="173.2656" y2="-466.7044" gradientTransform="matrix(1 0 0 -1 -173.0996 -453.4902)">
		<stop  offset="0" style="stop-color:#0066B2;stop-opacity:0"/>
		<stop  offset="1" style="stop-color:#07485E"/>
	</linearGradient>
	<path fill="url(#SVGID_5_)" d="M8.344,10.036H5.1v10.058l4.603,4.603c3.556,0.136,7.113,0.013,10.664-0.366
		c0.62-0.065,1.201-0.26,1.72-0.551L8.344,10.036z"/>
	
		<linearGradient id="SVGID_6_" gradientUnits="userSpaceOnUse" x1="196.2002" y1="-477.2471" x2="183.3494" y2="-464.3963" gradientTransform="matrix(1 0 0 -1 -173.0996 -453.4902)">
		<stop  offset="0" style="stop-color:#0066B2;stop-opacity:0"/>
		<stop  offset="1" style="stop-color:#07485E"/>
	</linearGradient>
	<path fill="url(#SVGID_6_)" d="M19.362,10.878c-0.594-0.651-1.448-1.058-2.398-1.058c-1.501,0-2.472,0.526-3.049,1.017
		l-0.636-0.801h-2.988v10.058l4.617,4.616c1.82-0.059,3.641-0.186,5.46-0.38c2.089-0.223,3.738-1.873,3.962-3.962
		c0.149-1.397,0.259-2.796,0.328-4.194L19.362,10.878z"/>
	<g>
		<path fill="#FFFFFF" d="M5.1,10.036h3.244v10.058H5.1V10.036z"/>
		<path fill="#FFFFFF" d="M16.964,9.82c-2.377,0-3.421,1.321-3.685,1.723v-1.507h-2.988v10.058h3.244v-5.052
			c0-1.461,0.671-2.595,1.947-2.595c1.273,0,1.481,1.413,1.481,3.151v4.496h3.244v-7.03C20.208,11.272,18.757,9.82,16.964,9.82z"/>
		<path fill="#FFFFFF" d="M8.653,6.838c0,1.067-0.864,1.931-1.931,1.931c-1.066,0-1.931-0.864-1.931-1.931
			c0-1.066,0.865-1.931,1.931-1.931C7.789,4.907,8.653,5.772,8.653,6.838z"/>
	</g>
</g>
</svg>
